<?xml version="1.0" encoding="UTF-8" standalone="no"?>
<!-- Created with Inkscape (http://www.inkscape.org/) -->

<svg
   version="1.1"
   id="svg2"
   width="408.06668"
   height="506.81332"
   viewBox="0 0 408.06668 506.81332"
   sodipodi:docname="Logo Đại Học Kinh Tế, Đại Học Quốc Gia Hà Nội - UEB.eps"
   xmlns:inkscape="http://www.inkscape.org/namespaces/inkscape"
   xmlns:sodipodi="http://sodipodi.sourceforge.net/DTD/sodipodi-0.dtd"
   xmlns="http://www.w3.org/2000/svg"
   xmlns:svg="http://www.w3.org/2000/svg">
  <defs
     id="defs6" />
  <sodipodi:namedview
     id="namedview4"
     pagecolor="#ffffff"
     bordercolor="#000000"
     borderopacity="0.25"
     inkscape:showpageshadow="2"
     inkscape:pageopacity="0.0"
     inkscape:pagecheckerboard="0"
     inkscape:deskcolor="#d1d1d1" />
  <g
     id="g8"
     inkscape:groupmode="layer"
     inkscape:label="ink_ext_XXXXXX"
     transform="matrix(1.3333333,0,0,-1.3333333,0,506.81333)">
    <g
       id="g10"
       transform="scale(0.1)">
      <path
         d="M 1018.5,779 C 960.797,710.398 964.402,615.301 954.699,531.199 1137.7,394.398 1332.2,274 1530.7,161.102 1874.2,356.199 2210.4,575.699 2481,866.699 2073.4,867.602 1665.8,867 1258.2,867 c -86.4,0.5 -179.8,-21.801 -239.7,-88 z m -440.203,88.199 c 101.305,-107.398 210,-207.801 327.105,-297.898 -7.105,73.699 -10.703,155.898 -63.601,213.5 -67,71.097 -170.403,86.5 -263.504,84.398 z m 402.301,91.199 C 972.703,924.699 978.602,889 977,854.5 c 46.1,42 102,72.699 161.8,89.898 55,15.204 112.3,13.602 168.8,13.301 417.7,-0.199 835.4,0.301 1253.2,-0.199 34.4,40.602 65.9,83.6 96.2,127.5 -469.6,0.8 -939.2,0.3 -1408.8,0.2 -101.9,0.6 -210.3,-38.3 -267.602,-126.802 z m -577.5,126.802 c 29.406,-44.2 61.304,-86.802 95.199,-127.7 50.101,-0.301 100.305,1.801 150.402,-1.398 88.102,-5.102 172.699,-44.301 237.098,-104 -1.598,34.097 4.101,69.199 -3.195,102.5 C 843.297,1014.9 779,1058.4 708.898,1073.8 c -100.601,20.7 -204,8.2 -305.8,11.4 z m 743.702,204.6 c -66.8,-15.2 -127.5,-56.6 -166.101,-113.2 -8.301,-33.8 -1.898,-69.8 -3.597,-104.4 70.198,65 164.798,103.6 260.898,103.1 491.2,0.2 982.5,0.3 1473.7,0 24.1,41.2 45,84.1 64.1,127.7 -475.8,0.2 -951.6,0.1 -1427.5,0.1 -67.3,-0.2 -135.6,3.4 -201.5,-13.3 z M 283.496,1303 c 19.305,-43.5 40.402,-86.2 63.902,-127.5 83.5,0 167.102,-0.1 250.7,0.1 105.101,5.1 210.902,-33.4 287.8,-105.3 -0.597,32.7 1.805,65.6 -1.496,98.2 -49.101,81.7 -143.703,127.3 -237.101,132 -121.199,4.9 -242.602,1.8 -363.805,2.5 z M 137.703,3295.3 c 5.496,-265.2 11.496,-530.4 16.395,-795.7 5.8,-269.8 7.3,-540.1 30.402,-809.1 6.699,-101.6 29.102,-201.6 63.699,-297.3 126.5,-0.3 253.102,0.5 379.703,-0.3 95.297,-1 188.2,-40.4 257.996,-104.8 -0.496,724.1 0.5,1448.3 -0.496,2172.4 C 639.301,3392.9 391.5,3326.8 137.703,3295.3 Z m 839.399,191.5 c -0.102,-732.2 0,-1464.4 -0.102,-2196.6 47,42.9 104.3,74.3 165.7,91 83.8,19.6 170.4,11.4 255.6,13.2 471,-1.8 942,-1.1 1413,-1.2 28.8,82.8 52,168.1 59.5,255.8 25.5,269.3 28.9,540 33.6,810.3 6.2,278.6 11.1,557.2 17.1,835.8 -99.4,11.8 -197.8,30.1 -295.5,51.5 -371.5,81.1 -734.8,195.9 -1097.2,309.5 -183.6,-57 -366.6,-117.1 -551.698,-169.3 z m -231,30 c 263.298,71.3 524.598,150 783.698,235.2 248.7,-81.9 499.6,-157 752.1,-226.2 240.9,-64.4 483.4,-125.8 730.8,-159.3 -5.9,-299 -12.2,-598 -18.5,-897 -3.8,-240.5 -9.1,-481.2 -24.8,-721.3 -7.6,-90.5 -12.7,-182.1 -37,-270.1 -43.3,-169.6 -118.7,-330.7 -220.2,-473.3 C 2635.1,893.801 2540.9,796.102 2444.8,701.5 2174.7,440.5 1854.8,238.398 1529.5,53.8008 1199.7,241.801 874.199,446.5 602.301,714 452.504,857.898 316.801,1020.1 226.199,1208.4 157,1352.3 107.102,1507.5 96.7969,1667.5 67.3008,2017.1 68.4023,2368.2 60.2031,2718.7 c -5.7031,215.9 -7.9023,432 -13.9023,647.8 236.8982,31.6 469.1012,89.4 699.8012,150.3"
         style="fill:#ffffff;fill-opacity:1;fill-rule:nonzero;stroke:none"
         id="path12" />
      <path
         d="m 505.5,2534 c -16.098,34.4 -0.199,70.4 18.398,99.7 -1.195,-33.1 -3.796,-71.4 22.5,-96.5 35.504,-32.4 87,-43.1 118.301,-81.3 27.602,-28.8 33.301,-69.6 38.301,-107.5 -14.801,34.6 -35.898,67.7 -68.902,87.4 -43.2,32 -109.2,41.4 -128.598,98.2"
         style="fill:#ffffff;fill-opacity:1;fill-rule:nonzero;stroke:none"
         id="path14" />
      <path
         d="m 438.297,2338.6 c 1.203,-35.1 33.402,-56.1 57.105,-77.3 0.496,53.8 0.899,107.6 -0.398,161.4 C 470.797,2399.6 437,2376 438.297,2338.6 Z m 40.402,195.4 c 13.805,-20.3 24.5,-44.2 45.602,-58.3 46.496,-33.4 106.695,-50.9 139.5,-100.9 23.597,-32.2 26.301,-74.4 17.398,-112.3 -6.597,28.4 -10.301,58.4 -25.699,83.8 -16.699,30.6 -46.5,50.3 -75.098,68.5 l -3.101,-6.6 c -5.399,-49.9 -2.297,-100.2 -1.899,-150.3 53.399,12.4 56.5,73.6 46.797,117.3 26.699,-37.4 44.399,-81.8 42.602,-128.4 -62,-83.2 -199.797,-84.7 -269.102,-9.8 -52.203,50.1 -58.398,140.5 -11.398,196 23.301,30.7 59.699,46.4 94.797,59.4 16.8,-30.9 41.699,-62.1 77.3,-70.9 -9.097,15.7 -28.199,22.8 -40.601,35.7 -23.399,18.8 -30.899,48.9 -37.098,76.8"
         style="fill:#ffffff;fill-opacity:1;fill-rule:nonzero;stroke:none"
         id="path16" />
      <path
         d="m 1218.5,2295.2 c 10.8,-0.1 21.7,-0.2 32.6,-0.3 9.8,-32.7 19.9,-65.4 30.2,-98.1 10.3,32.4 20.3,64.9 29.6,97.6 8.5,0.2 25.3,0.7 33.7,0.9 -16.1,-44.7 -31.8,-89.4 -47.8,-134.1 -10.5,0.1 -20.9,0.1 -31.2,0.1 -15.6,44.7 -31.5,89.2 -47.1,133.9"
         style="fill:#ffffff;fill-opacity:1;fill-rule:nonzero;stroke:none"
         id="path18" />
      <path
         d="m 1439.2,2295.1 c 6.8,0 20.4,0 27.2,0 0.1,-45.4 0.5,-90.9 -0.4,-136.3 -46.8,-1 -54.7,57.2 -80.5,86.2 -0.3,-27.9 -0.3,-56 -0.3,-83.9 -7.4,-0.1 -22.2,-0.1 -29.6,-0.1 -0.1,44.7 -0.1,89.5 0,134.2 7.4,-0.1 22.2,-0.4 29.6,-0.5 17.5,-28.9 35.4,-57.7 53.7,-86.2 0.1,28.9 0.1,57.8 0.3,86.6"
         style="fill:#ffffff;fill-opacity:1;fill-rule:nonzero;stroke:none"
         id="path20" />
      <path
         d="m 1489.4,2295.5 c 9.9,-0.4 19.9,-0.7 30,-1.1 -0.2,-36 -0.3,-72.1 1,-108.2 13.2,-1.3 27.6,-6.7 40.2,0.6 10,35 2.9,72.3 4.7,108.2 7.4,0 22.3,0.1 29.7,0.1 -0.6,-35.2 2.6,-70.7 -2.3,-105.6 -13.8,-43 -88,-42.4 -101,0.8 -5.2,34.8 -2,70.1 -2.3,105.2"
         style="fill:#ffffff;fill-opacity:1;fill-rule:nonzero;stroke:none"
         id="path22" />
      <path
         d="m 482.398,2132.6 c -47.898,-18.3 -69.695,-83.9 -36.097,-124.7 44.801,-66.6 170.699,-42.9 175.898,41.5 7.203,72 -80.801,112.6 -139.801,83.2 z m -128.796,-93.2 c -9.2,59.8 24,117.8 73.199,150 62.297,-32.3 137.699,-31.8 200.199,-0.5 31.098,-25.6 61,-57 68.598,-98.2 11.304,-41.4 -0.594,-84.1 -20,-121 12.5,-36 15.504,-78 -7.2,-110.8 -32.097,-57.4 -102.296,-69.8 -149.398,-110.3 -20.703,-16.2 -30.102,-41.5 -41.801,-64 4.703,31.6 14.5,64 38.598,86.5 41.601,39.3 103.402,54.3 135.402,104.4 18.5,24.2 21.801,55.3 19.203,84.7 -36.203,-34.3 -80.398,-64.7 -132.203,-65.4 C 452,1886.2 361.5,1950.7 353.602,2039.4"
         style="fill:#ffffff;fill-opacity:1;fill-rule:nonzero;stroke:none"
         id="path24" />
      <path
         d="m 1219.9,2096.7 c 33.9,0.1 67.8,0.1 101.8,-0.5 -0.6,-105.7 -0.2,-211.4 -0.4,-317.2 -0.5,-27.9 5.2,-60.1 30.4,-76.7 45.7,-31.9 130.1,-16.3 137.5,46.9 5.1,115.6 0.6,231.7 2.1,347.5 34.2,0 68.4,0 102.6,0 -0.2,-105.5 0.4,-211.1 -0.2,-316.6 1,-53.7 -20,-109.9 -65.7,-140.9 -63.1,-41.5 -147.8,-43.8 -216.5,-15.2 -56.6,23.5 -91.8,83.9 -91.4,144.2 -0.7,109.5 0,219 -0.2,328.5"
         style="fill:#ffffff;fill-opacity:1;fill-rule:nonzero;stroke:none"
         id="path26" />
      <path
         d="m 1654.6,2096.8 c 108.6,-0.3 217.2,-0.1 325.8,-0.1 0,-27 0,-54 0.1,-81 -74.9,0 -149.8,0.1 -224.7,-0.1 0,-38.1 0,-76.3 0,-114.5 64,0 128,-0.1 192,0 0.6,-26.3 0.8,-52.8 0.9,-79.2 -64.3,0 -128.6,0 -192.8,-0.1 -0.1,-42.8 -0.1,-85.7 -0.1,-128.6 75.2,-0.3 150.5,0 225.8,-0.1 0,-26.9 0,-53.8 0.2,-80.7 -109.1,-0.8 -218.2,0.1 -327.3,-0.4 -0.3,161.6 -0.3,323.2 0.1,484.8"
         style="fill:#ffffff;fill-opacity:1;fill-rule:nonzero;stroke:none"
         id="path28" />
      <path
         d="m 2140.1,1822.9 c 0,-43.3 0,-86.5 0,-129.8 41.7,2.2 85.8,-6.6 125.8,8.1 49.6,19.5 45,106.2 -8,117.9 -38.7,7.9 -78.6,2.7 -117.8,3.8 z m 0,192.8 c 0,-40.2 0,-80.4 0,-120.7 38.2,1.5 78.1,-5.5 115.1,6.7 45.3,15.4 46.7,90 1.7,106.3 -37.5,12.4 -78,6.4 -116.8,7.7 z m -100.3,81 c 88,-4.8 178.9,11.6 264.8,-12.7 64.8,-17.2 101.9,-91.3 81.3,-154.2 -7.4,-30.7 -32.8,-51.2 -57.5,-68.3 93.6,-29.6 96.1,-171.7 18.4,-220.1 -41.1,-26.6 -91.8,-29.9 -139.3,-29.5 -56,0.2 -111.8,0.2 -167.7,0.2 -0.1,161.5 -0.1,323.1 0,484.6"
         style="fill:#ffffff;fill-opacity:1;fill-rule:nonzero;stroke:none"
         id="path30" />
      <path
         d="m 355.402,1829.2 c -9.203,39.2 2.996,78.7 20.395,113.6 18.605,-16.8 38.402,-32.4 59.504,-46 -3.602,-25.4 -10,-53.4 3.301,-77.2 9.796,-20.5 30.398,-31.8 48.699,-43.6 -13.301,-20.8 -23.403,-43.5 -31.504,-66.8 -48.797,22.8 -91.598,65.1 -100.395,120"
         style="fill:#ffffff;fill-opacity:1;fill-rule:nonzero;stroke:none"
         id="path32" />
      <path
         d="m 630.301,1787.4 c 32.402,17.2 55,47.1 69.902,79.8 -3.402,-38.8 -14.703,-78.8 -44.902,-105.4 -33.399,-35.6 -87.301,-44.1 -116.699,-83.6 -20.899,-26.3 -15.305,-61.3 -15.305,-92.4 -25.793,34 -33.399,81.8 -11.699,119.8 23.504,45.7 78.605,56 118.703,81.8"
         style="fill:#ffffff;fill-opacity:1;fill-rule:nonzero;stroke:none"
         id="path34" />
      <path
         d="m 1340.5,651.602 c 8,0.296 16,0.699 24.1,0.898 0.2,-58.301 0.1,-116.5 0.1,-174.801 -11.4,0 -22.8,0 -34.1,-0.097 -0.2,40.097 -0.2,80.097 0.2,120.097 -14.5,-7.199 -28.9,-14.398 -43.5,-21.301 0.7,7.602 2.2,23 3,30.602 19.5,11.5 36.4,26.602 50.2,44.602"
         style="fill:#ffffff;fill-opacity:1;fill-rule:nonzero;stroke:none"
         id="path36" />
      <path
         d="m 1444.7,626.301 c -6,-17.602 -17.3,-38.301 -4.6,-55.903 7.8,-16.398 35.9,-10 37.2,8.204 9.6,24.199 -9.4,45.097 -32.6,47.699 z m -13.2,20.097 c 31.4,17.204 73.2,-4.097 80.6,-38.398 6.4,-30.5 7,-63.102 -1.5,-93.301 -9.9,-32.699 -50.6,-50.398 -81.2,-35.5 -16.1,6.801 -20.2,25.199 -28.2,38.699 19.7,5.5 38.3,4.704 48,-15.796 23.9,-1 28.3,23.296 35.8,41 -18,-1.801 -38.1,-13.5 -55.3,-2.704 -39.7,20 -38.9,87.602 1.8,106"
         style="fill:#ffffff;fill-opacity:1;fill-rule:nonzero;stroke:none"
         id="path38" />
      <path
         d="m 1527,647.5 c 38.6,0.699 77.2,0.801 115.9,-0.199 -0.4,-5.602 -1.2,-16.801 -1.6,-22.403 -35.2,-41.296 -52.3,-93.199 -60.3,-146 -7.9,-0.597 -23.6,-1.898 -31.5,-2.5 3.7,50.602 21.6,99 51,140.102 -24.5,0 -48.9,0.102 -73.3,0.199 -0.1,7.699 -0.1,23.102 -0.2,30.801"
         style="fill:#ffffff;fill-opacity:1;fill-rule:nonzero;stroke:none"
         id="path40" />
      <path
         d="m 1679.5,542.898 c 12.3,-0.097 24.6,-0.199 37,-0.296 -0.2,18.296 -0.4,36.597 -0.5,54.796 -12.1,-18.199 -24.3,-36.296 -36.5,-54.5 z m 40.9,108.602 c 7.5,0.199 22.4,0.699 29.8,0.898 0,-36.398 0.1,-72.898 -0.1,-109.398 5.4,-0.102 16.2,-0.5 21.6,-0.602 0.1,-7.5 0.2,-22.597 0.2,-30.097 -5.4,-0.199 -16.3,-0.602 -21.7,-0.801 0,-8.5 0,-25.398 0,-33.801 -8.4,0 -25.2,0.102 -33.6,0.102 -0.2,11.398 -0.3,22.801 -0.3,34.097 -24.1,0 -48.2,0 -72.1,0.204 3.3,55.597 51.6,92.597 76.2,139.398"
         style="fill:#ffffff;fill-opacity:1;fill-rule:nonzero;stroke:none"
         id="path42" />
      <path
         d="m 746.102,3516.8 c -230.7,-60.9 -462.903,-118.7 -699.8012,-150.3 6,-215.8 8.1992,-431.9 13.9023,-647.8 8.1992,-350.5 7.0977,-701.6 36.5938,-1051.2 C 107.102,1507.5 157,1352.3 226.199,1208.4 316.801,1020.1 452.504,857.898 602.301,714 874.199,446.5 1199.7,241.801 1529.5,53.8008 1854.8,238.398 2174.7,440.5 2444.8,701.5 c 96.1,94.602 190.3,192.301 267.4,303.3 101.5,142.6 176.9,303.7 220.2,473.3 24.3,88 29.4,179.6 37,270.1 15.7,240.1 21,480.8 24.8,721.3 6.3,299 12.6,598 18.5,897 -247.4,33.5 -489.9,94.9 -730.8,159.3 -252.5,69.2 -503.4,144.3 -752.1,226.2 -259.1,-85.2 -520.4,-163.9 -783.698,-235.2 z M 372.301,3473 c 391.195,88.7 775.799,204.2 1157.099,328.1 285.3,-93 572.5,-180.1 862.8,-256.3 220.1,-56.2 441.7,-112.5 668.3,-135.3 -4.3,-250 -10.4,-500.1 -15.2,-750.2 -7.1,-296.9 -8,-594.1 -27.3,-890.6 -7.9,-103.6 -13.5,-208.5 -41.6,-309.2 C 2931.7,1286.9 2854.5,1123 2751.1,977.801 2657.2,843.699 2541.1,727.398 2422.5,615.301 2154.2,371 1844.9,177.102 1529.5,0 1212,179 899.801,373.898 630.5,621.398 452.398,786.602 286.199,971.301 181.102,1192.6 114.402,1333.4 64.5,1484.5 52.1016,1640.6 29.4023,1886.2 24,2133 19.6992,2379.5 13.8984,2722.9 3.80078,3066.2 0.00390625,3409.6 125.598,3420.5 249.199,3446.7 372.301,3473"
         style="fill:#a61c24;fill-opacity:1;fill-rule:nonzero;stroke:none"
         id="path44" />
      <path
         d="m 2039.8,2096.7 c -0.1,-161.5 -0.1,-323.1 0,-484.6 55.9,0 111.7,0 167.7,-0.2 47.5,-0.4 98.2,2.9 139.3,29.5 77.7,48.4 75.2,190.5 -18.4,220.1 24.7,17.1 50.1,37.6 57.5,68.3 20.6,62.9 -16.5,137 -81.3,154.2 -85.9,24.3 -176.8,7.9 -264.8,12.7 z m -385.2,0.1 c -0.4,-161.6 -0.4,-323.2 -0.1,-484.8 109.1,0.5 218.2,-0.4 327.3,0.4 -0.2,26.9 -0.2,53.8 -0.2,80.7 -75.3,0.1 -150.6,-0.2 -225.8,0.1 0,42.9 0,85.8 0.1,128.6 64.2,0.1 128.5,0.1 192.8,0.1 -0.1,26.4 -0.3,52.9 -0.9,79.2 -64,-0.1 -128,0 -192,0 0,38.2 0,76.4 0,114.5 74.9,0.2 149.8,0.1 224.7,0.1 -0.1,27 -0.1,54 -0.1,81 -108.6,0 -217.2,-0.2 -325.8,0.1 z m -434.7,-0.1 c 0.2,-109.5 -0.5,-219 0.2,-328.5 -0.4,-60.3 34.8,-120.7 91.4,-144.2 68.7,-28.6 153.4,-26.3 216.5,15.2 45.7,31 66.7,87.2 65.7,140.9 0.6,105.5 0,211.1 0.2,316.6 -34.2,0 -68.4,0 -102.6,0 -1.5,-115.8 3,-231.9 -2.1,-347.5 -7.4,-63.2 -91.8,-78.8 -137.5,-46.9 -25.2,16.6 -30.9,48.8 -30.4,76.7 0.2,105.8 -0.2,211.5 0.4,317.2 -34,0.6 -67.9,0.6 -101.8,0.5 z m 269.5,198.8 c 0.3,-35.1 -2.9,-70.4 2.3,-105.2 13,-43.2 87.2,-43.8 101,-0.8 4.9,34.9 1.7,70.4 2.3,105.6 -7.4,0 -22.3,-0.1 -29.7,-0.1 -1.8,-35.9 5.3,-73.2 -4.7,-108.2 -12.6,-7.3 -27,-1.9 -40.2,-0.6 -1.3,36.1 -1.2,72.2 -1,108.2 -10.1,0.4 -20.1,0.7 -30,1.1 z m -50.2,-0.4 c -0.2,-28.8 -0.2,-57.7 -0.3,-86.6 -18.3,28.5 -36.2,57.3 -53.7,86.2 -7.4,0.1 -22.2,0.4 -29.6,0.5 -0.1,-44.7 -0.1,-89.5 0,-134.2 7.4,0 22.2,0 29.6,0.1 0,27.9 0,56 0.3,83.9 25.8,-29 33.7,-87.2 80.5,-86.2 0.9,45.4 0.5,90.9 0.4,136.3 -6.8,0 -20.4,0 -27.2,0 z m -220.7,0.1 c 15.6,-44.7 31.5,-89.2 47.1,-133.9 10.3,0 20.7,0 31.2,-0.1 16,44.7 31.7,89.4 47.8,134.1 -8.4,-0.2 -25.2,-0.7 -33.7,-0.9 -9.3,-32.7 -19.3,-65.2 -29.6,-97.6 -10.3,32.7 -20.4,65.4 -30.2,98.1 -10.9,0.1 -21.8,0.2 -32.6,0.3 z M 977.102,3486.8 c 185.098,52.2 368.098,112.3 551.698,169.3 362.4,-113.6 725.7,-228.4 1097.2,-309.5 97.7,-21.4 196.1,-39.7 295.5,-51.5 -6,-278.6 -10.9,-557.2 -17.1,-835.8 -4.7,-270.3 -8.1,-541 -33.6,-810.3 -7.5,-87.7 -30.7,-173 -59.5,-255.8 -471,0.1 -942,-0.6 -1413,1.2 -85.2,-1.8 -171.8,6.4 -255.6,-13.2 -61.4,-16.7 -118.7,-48.1 -165.7,-91 0.102,732.2 0,1464.4 0.102,2196.6"
         style="fill:#a61c24;fill-opacity:1;fill-rule:nonzero;stroke:none"
         id="path46" />
      <path
         d="m 630.301,1787.4 c -40.098,-25.8 -95.199,-36.1 -118.703,-81.8 -21.7,-38 -14.094,-85.8 11.699,-119.8 0,31.1 -5.594,66.1 15.305,92.4 29.398,39.5 83.3,48 116.699,83.6 30.199,26.6 41.5,66.6 44.902,105.4 -14.902,-32.7 -37.5,-62.6 -69.902,-79.8 z m -274.899,41.8 c 8.797,-54.9 51.598,-97.2 100.395,-120 8.101,23.3 18.203,46 31.504,66.8 -18.301,11.8 -38.903,23.1 -48.699,43.6 -13.301,23.8 -6.903,51.8 -3.301,77.2 -21.102,13.6 -40.899,29.2 -59.504,46 -17.399,-34.9 -29.598,-74.4 -20.395,-113.6 z m -1.8,210.2 c 7.898,-88.7 98.398,-153.2 184.597,-144.6 51.805,0.7 96,31.1 132.203,65.4 2.598,-29.4 -0.703,-60.5 -19.203,-84.7 -32,-50.1 -93.801,-65.1 -135.402,-104.4 -24.098,-22.5 -33.895,-54.9 -38.598,-86.5 11.699,22.5 21.098,47.8 41.801,64 47.102,40.5 117.301,52.9 149.398,110.3 22.704,32.8 19.7,74.8 7.2,110.8 19.406,36.9 31.304,79.6 20,121 -7.598,41.2 -37.5,72.6 -68.598,98.2 -62.5,-31.3 -137.902,-31.8 -200.199,0.5 -49.199,-32.2 -82.399,-90.2 -73.199,-150 z M 478.699,2534 c 6.199,-27.9 13.699,-58 37.098,-76.8 12.402,-12.9 31.504,-20 40.601,-35.7 -35.601,8.8 -60.5,40 -77.3,70.9 -35.098,-13 -71.496,-28.7 -94.797,-59.4 -47,-55.5 -40.805,-145.9 11.398,-196 69.305,-74.9 207.102,-73.4 269.102,9.8 1.797,46.6 -15.903,91 -42.602,128.4 9.703,-43.7 6.602,-104.9 -46.797,-117.3 -0.398,50.1 -3.5,100.4 1.899,150.3 l 3.101,6.6 c 28.598,-18.2 58.399,-37.9 75.098,-68.5 15.398,-25.4 19.102,-55.4 25.699,-83.8 8.903,37.9 6.199,80.1 -17.398,112.3 -32.805,50 -93.004,67.5 -139.5,100.9 -21.102,14.1 -31.797,38 -45.602,58.3 z m 26.801,0 c 19.398,-56.8 85.398,-66.2 128.598,-98.2 33.004,-19.7 54.101,-52.8 68.902,-87.4 -5,37.9 -10.699,78.7 -38.301,107.5 -31.301,38.2 -82.797,48.9 -118.301,81.3 -26.296,25.1 -23.695,63.4 -22.5,96.5 -18.597,-29.3 -34.496,-65.3 -18.398,-99.7 z m -367.797,761.3 c 253.797,31.5 501.598,97.6 747.699,165.2 0.996,-724.1 0,-1448.3 0.496,-2172.4 -69.796,64.4 -162.699,103.8 -257.996,104.8 -126.601,0.8 -253.203,0 -379.703,0.3 -34.597,95.7 -57,195.7 -63.699,297.3 -23.102,269 -24.602,539.3 -30.402,809.1 -4.899,265.3 -10.899,530.5 -16.395,795.7"
         style="fill:#a61c24;fill-opacity:1;fill-rule:nonzero;stroke:none"
         id="path48" />
      <path
         d="m 438.297,2338.6 c -1.297,37.4 32.5,61 56.707,84.1 1.297,-53.8 0.894,-107.6 0.398,-161.4 -23.703,21.2 -55.902,42.2 -57.105,77.3"
         style="fill:#a61c24;fill-opacity:1;fill-rule:nonzero;stroke:none"
         id="path50" />
      <path
         d="m 482.398,2132.6 c 59,29.4 147.004,-11.2 139.801,-83.2 C 617,1965 491.102,1941.3 446.301,2007.9 c -33.598,40.8 -11.801,106.4 36.097,124.7"
         style="fill:#a61c24;fill-opacity:1;fill-rule:nonzero;stroke:none"
         id="path52" />
      <path
         d="m 2140.1,2015.7 c 38.8,-1.3 79.3,4.7 116.8,-7.7 45,-16.3 43.6,-90.9 -1.7,-106.3 -37,-12.2 -76.9,-5.2 -115.1,-6.7 0,40.3 0,80.5 0,120.7"
         style="fill:#a61c24;fill-opacity:1;fill-rule:nonzero;stroke:none"
         id="path54" />
      <path
         d="m 2140.1,1822.9 c 39.2,-1.1 79.1,4.1 117.8,-3.8 53,-11.7 57.6,-98.4 8,-117.9 -40,-14.7 -84.1,-5.9 -125.8,-8.1 0,43.3 0,86.5 0,129.8"
         style="fill:#a61c24;fill-opacity:1;fill-rule:nonzero;stroke:none"
         id="path56" />
      <path
         d="m 283.496,1303 c 121.203,-0.7 242.606,2.4 363.805,-2.5 93.398,-4.7 188,-50.3 237.101,-132 3.301,-32.6 0.899,-65.5 1.496,-98.2 -76.898,71.9 -182.699,110.4 -287.8,105.3 -83.598,-0.2 -167.2,-0.1 -250.7,-0.1 -23.5,41.3 -44.597,84 -63.902,127.5"
         style="fill:#a61c24;fill-opacity:1;fill-rule:nonzero;stroke:none"
         id="path58" />
      <path
         d="m 1146.8,1289.8 c 65.9,16.7 134.2,13.1 201.5,13.3 475.9,0 951.7,0.1 1427.5,-0.1 -19.1,-43.6 -40,-86.5 -64.1,-127.7 -491.2,0.3 -982.5,0.2 -1473.7,0 -96.1,0.5 -190.7,-38.1 -260.898,-103.1 1.699,34.6 -4.704,70.6 3.597,104.4 38.601,56.6 99.301,98 166.101,113.2"
         style="fill:#a61c24;fill-opacity:1;fill-rule:nonzero;stroke:none"
         id="path60" />
      <path
         d="m 403.098,1085.2 c 101.8,-3.2 205.199,9.3 305.8,-11.4 70.102,-15.4 134.399,-58.9 173.704,-119.198 7.296,-33.301 1.597,-68.403 3.195,-102.5 -64.399,59.699 -148.996,98.898 -237.098,104 -50.097,3.199 -100.301,1.097 -150.402,1.398 -33.895,40.898 -65.793,83.5 -95.199,127.7"
         style="fill:#a61c24;fill-opacity:1;fill-rule:nonzero;stroke:none"
         id="path62" />
      <path
         d="M 980.598,958.398 C 1037.9,1046.9 1146.3,1085.8 1248.2,1085.2 c 469.6,0.1 939.2,0.6 1408.8,-0.2 -30.3,-43.9 -61.8,-86.898 -96.2,-127.5 -417.8,0.5 -835.5,0 -1253.2,0.199 -56.5,0.301 -113.8,1.903 -168.8,-13.301 C 1079,927.199 1023.1,896.5 977,854.5 c 1.602,34.5 -4.297,70.199 3.598,103.898"
         style="fill:#a61c24;fill-opacity:1;fill-rule:nonzero;stroke:none"
         id="path64" />
      <path
         d="m 578.297,867.199 c 93.101,2.102 196.504,-13.301 263.504,-84.398 52.898,-57.602 56.496,-139.801 63.601,-213.5 -117.105,90.097 -225.8,190.5 -327.105,297.898"
         style="fill:#a61c24;fill-opacity:1;fill-rule:nonzero;stroke:none"
         id="path66" />
      <path
         d="m 1720.4,651.5 c -24.6,-46.801 -72.9,-83.801 -76.2,-139.398 23.9,-0.204 48,-0.204 72.1,-0.204 0,-11.296 0.1,-22.699 0.3,-34.097 8.4,0 25.2,-0.102 33.6,-0.102 0,8.403 0,25.301 0,33.801 5.4,0.199 16.3,0.602 21.7,0.801 0,7.5 -0.1,22.597 -0.2,30.097 -5.4,0.102 -16.2,0.5 -21.6,0.602 0.2,36.5 0.1,73 0.1,109.398 -7.4,-0.199 -22.3,-0.699 -29.8,-0.898 z m -193.4,-4 c 0.1,-7.699 0.1,-23.102 0.2,-30.801 24.4,-0.097 48.8,-0.199 73.3,-0.199 -29.4,-41.102 -47.3,-89.5 -51,-140.102 7.9,0.602 23.6,1.903 31.5,2.5 8,52.801 25.1,104.704 60.3,146 0.4,5.602 1.2,16.801 1.6,22.403 -38.7,1 -77.3,0.898 -115.9,0.199 z m -95.5,-1.102 c -40.7,-18.398 -41.5,-86 -1.8,-106 17.2,-10.796 37.3,0.903 55.3,2.704 -7.5,-17.704 -11.9,-42 -35.8,-41 -9.7,20.5 -28.3,21.296 -48,15.796 8,-13.5 12.1,-31.898 28.2,-38.699 30.6,-14.898 71.3,2.801 81.2,35.5 8.5,30.199 7.9,62.801 1.5,93.301 -7.4,34.301 -49.2,55.602 -80.6,38.398 z m -91,5.204 c -13.8,-18 -30.7,-33.102 -50.2,-44.602 -0.8,-7.602 -2.3,-23 -3,-30.602 14.6,6.903 29,14.102 43.5,21.301 -0.4,-40 -0.4,-80 -0.2,-120.097 11.3,0.097 22.7,0.097 34.1,0.097 0,58.301 0.1,116.5 -0.1,174.801 -8.1,-0.199 -16.1,-0.602 -24.1,-0.898 z M 1018.5,779 c 59.9,66.199 153.3,88.5 239.7,88 407.6,0 815.2,0.602 1222.8,-0.301 -270.6,-291 -606.8,-510.5 -950.3,-705.597 -198.5,112.898 -393,233.296 -576.001,370.097 9.703,84.102 6.098,179.199 63.801,247.801"
         style="fill:#a61c24;fill-opacity:1;fill-rule:nonzero;stroke:none"
         id="path68" />
      <path
         d="m 1444.7,626.301 c 23.2,-2.602 42.2,-23.5 32.6,-47.699 -1.3,-18.204 -29.4,-24.602 -37.2,-8.204 -12.7,17.602 -1.4,38.301 4.6,55.903"
         style="fill:#a61c24;fill-opacity:1;fill-rule:nonzero;stroke:none"
         id="path70" />
      <path
         d="m 1679.5,542.898 c 12.2,18.204 24.4,36.301 36.5,54.5 0.1,-18.199 0.3,-36.5 0.5,-54.796 -12.4,0.097 -24.7,0.199 -37,0.296"
         style="fill:#a61c24;fill-opacity:1;fill-rule:nonzero;stroke:none"
         id="path72" />
    </g>
  </g>
</svg>
